<svg id="sample-icon-2" xmlns="http://www.w3.org/2000/svg" width="56.54" height="38.699" viewBox="0 0 56.54 38.699">
  <g id="layer1">
    <path id="path1767" d="M3.574,278.648a2.461,2.461,0,0,0-1.919,1,3.425,3.425,0,0,0-.685,2.1v23.284a3.425,3.425,0,0,0,.685,2.1,2.456,2.456,0,0,0,1.919.993H20.055l-.51,3.542H14.961a3.641,3.641,0,0,0-3.116,1.765l-.727,1.206a1.816,1.816,0,0,0,1.532,2.7h24.6a1.816,1.816,0,0,0,1.532-2.7l-.721-1.206a3.641,3.641,0,0,0-3.116-1.765H30.366l-.51-3.542h2.91a.915.915,0,1,0,0-1.831H3.574a.579.579,0,0,1-.465-.279,1.655,1.655,0,0,1-.306-.986v-.742H31.812a.916.916,0,1,0,0-1.831H2.8V281.75a1.655,1.655,0,0,1,.306-.986.588.588,0,0,1,.465-.285H46.336a.587.587,0,0,1,.465.285,1.655,1.655,0,0,1,.3.986v6.168a.916.916,0,1,0,1.833,0V281.75a3.421,3.421,0,0,0-.68-2.1,2.461,2.461,0,0,0-1.919-1Zm32.2,4.406a.917.917,0,0,0-.378.1,50.028,50.028,0,0,1-6.948,2.976c-2.6.867-5.8-.364-9.219-.981a10.9,10.9,0,0,0-5.257.107,9.231,9.231,0,0,0-4.884,3.984.916.916,0,0,0-.149.6v5.409h-.92a.916.916,0,0,0,0,1.833H30.015a.916.916,0,1,0,0-1.833H29.1v-7.406a52.143,52.143,0,0,0,7.116-3.053.917.917,0,0,0-.44-1.738ZM16.269,286.74v8.512H14.437v-8.208a.706.706,0,0,1,.088-.031,6.738,6.738,0,0,1,1.745-.272Zm1.833.093c.267.035.532.069.805.118.338.061.683.136,1.029.215v8.086H18.1Zm3.667.768c.6.147,1.216.289,1.833.406v7.245H21.769Zm-16.493.319a.916.916,0,1,0,0,1.833h.915a.916.916,0,1,0,0-1.833Zm7.333.109v7.224H10.777v-5.214a9.071,9.071,0,0,1,1.833-2.01Zm14.66.215v7.009H25.435v-6.993a10.389,10.389,0,0,0,1.835-.016Zm19.069,2.994A11.171,11.171,0,1,0,57.51,302.406,11.181,11.181,0,0,0,46.338,291.237Zm-41.062.347a.916.916,0,1,0,0,1.833h.915a.916.916,0,1,0,0-1.833Zm41.062,1.482A9.339,9.339,0,1,1,37,302.406,9.326,9.326,0,0,1,46.338,293.067Zm0,1.384a7.967,7.967,0,0,0-7.95,7.956.916.916,0,0,0,.9.915v.011h1.217a.917.917,0,0,0,0-1.835h-.217a6.092,6.092,0,0,1,.358-1.348.9.9,0,0,0,.881-1.53,6.119,6.119,0,0,1,1.015-1.018.893.893,0,0,0,1.525-.879,6.1,6.1,0,0,1,1.355-.362v.619a.917.917,0,0,0,1.835,0v-.617a6.067,6.067,0,0,1,1.35.36.9.9,0,0,0,1.528.882,6.118,6.118,0,0,1,1.013,1.017.9.9,0,0,0,.877,1.528,6.091,6.091,0,0,1,.358,1.348H51.77a.917.917,0,1,0,0,1.835h1.614v-.011a.916.916,0,0,0,.909-.915,7.971,7.971,0,0,0-7.956-7.956Zm-33.729,4.467a.914.914,0,1,0,0,1.827h.915a.913.913,0,0,0,0-1.826Zm5.493,0a.914.914,0,0,0,0,1.827h.92a.914.914,0,1,0,0-1.827Zm5.5,0a.914.914,0,0,0,0,1.827h.92a.914.914,0,0,0,0-1.827Zm22.736.4a.916.916,0,0,0-.915.92v1.475a2.521,2.521,0,1,0,1.835,0v-1.477a.916.916,0,0,0-.92-.92Zm0,4.043a.694.694,0,1,1-.689.694A.683.683,0,0,1,46.338,303.362ZM21.907,308.13H28l.51,3.542H21.4ZM14.961,313.5H34.95a1.8,1.8,0,0,1,1.545.872l.682,1.14H12.729l.687-1.14a1.8,1.8,0,0,1,1.545-.872Z" transform="translate(-0.97 -278.648)" fill="black"/>
  </g>
</svg>
