<svg id="sample-icon-1" xmlns="http://www.w3.org/2000/svg" width="46.55" height="46.566" viewBox="0 0 46.55 46.566">
  <g id="Statistic">
    <path id="Path_9" data-name="Path 9" d="M47.774,31.189H36.912a.776.776,0,0,0-.776.776v18.62H31.482V18.776A.776.776,0,0,0,30.706,18H19.844a.776.776,0,0,0-.776.776V50.585H14.413V28.862a.776.776,0,0,0-.776-.776H2.776A.776.776,0,0,0,2,28.862v22.5a.776.776,0,0,0,.776.776h45a.776.776,0,0,0,.776-.776v-19.4A.776.776,0,0,0,47.774,31.189ZM3.552,50.585V29.637h9.31V50.585Zm17.068,0V19.552h9.31V50.585Zm17.068,0V32.741H47V50.585Z" transform="translate(-2 -5.57)" fill="black"/>
    <path id="Path_10" data-name="Path 10" d="M8.655,21.391a4.642,4.642,0,0,0,4.382-6.21L22.1,9.562A4.64,4.64,0,0,0,28.95,10l9.692,7.743a4.665,4.665,0,1,0,.923-1.249L29.872,8.749A4.656,4.656,0,1,0,21.341,8.2l-9.059,5.62a4.653,4.653,0,1,0-3.626,7.567Zm34.137-4.655a3.1,3.1,0,1,1-3.1,3.1A3.1,3.1,0,0,1,42.791,16.736ZM25.723,3.547a3.1,3.1,0,1,1-3.1,3.1,3.1,3.1,0,0,1,3.1-3.1ZM8.655,13.633a3.1,3.1,0,1,1-3.1,3.1,3.1,3.1,0,0,1,3.1-3.1Z" transform="translate(-2.448 -1.979)" fill="black"/>
  </g>
</svg>
